<?xml version="1.0" encoding="UTF-8"?>
<svg width="230px" height="97px" viewBox="0 0 230 97" version="1.1" xmlns="http://www.w3.org/2000/svg" xmlns:xlink="http://www.w3.org/1999/xlink">
    <!-- Generator: Sketch 64 (93537) - https://sketch.com -->
    <title>Logo / Bots / BOTS_Blue</title>
    <desc>Created with Sketch.</desc>
    <g id="Landingpage" stroke="none" stroke-width="1" fill="none" fill-rule="evenodd">
        <g transform="translate(-604.000000, -1316.000000)" id="Wat-is-revenYou">
            <g transform="translate(0.000000, 1236.000000)">
                <g id="Group-7" transform="translate(551.000000, 80.000000)">
                    <g id="Group-8">
                        <g id="Logo-/-Bots-/-BOTS_Blue" transform="translate(53.000000, 0.000000)">
                            <polygon id="Fill-1" fill="#147383" points="12.5369596 89.6521468 20.9469148 94.8313277 21.0644933 81.5691574 12.6514439 76.3899766"></polygon>
                            <polygon id="Fill-2" fill="#1B91A6" points="21.0629462 81.5707053 12.652991 76.3884287 37.709583 73.3112585 46.1226323 78.4904394"></polygon>
                            <polygon id="Fill-3" fill="#1B91A6" points="46.2439238 65.2288883 37.8339686 60.0497074 50.3622646 58.5018351 58.7753139 63.6841117"></polygon>
                            <polygon id="Fill-4" fill="#00294F" points="46.12913 78.4916777 37.7160807 73.3094011 37.8336592 60.0472309 46.2436143 65.2295074"></polygon>
                            <polygon id="Fill-5" fill="#1B91A6" points="21.3076951 55.0392447 12.8977399 49.8569681 37.9605202 46.7797979 46.3735695 51.9589787"></polygon>
                            <polygon id="Fill-6" fill="#00294F" points="46.3664529 51.960217 37.9564978 46.7810362 38.0771704 33.5095787 46.4902197 38.6918553"></polygon>
                            <polygon id="Fill-7" fill="#1B91A6" points="46.4886726 38.6912362 38.0787175 33.5089596 50.6132018 31.9703745 59.0262511 37.1495553"></polygon>
                            <polygon id="Fill-8" fill="#1B91A6" points="0.609860987 24.8653309 9.02291031 30.0476074 46.6170807 25.4287564 38.2071256 20.2464798"></polygon>
                            <polygon id="Fill-9" fill="#00294F" points="0 91.1928989 8.41304933 96.3720798 9.0226009 30.0488457 0.60955157 24.8665691"></polygon>
                            <polygon id="Fill-10" fill="#00294F" points="216.862978 70.7554117 208.449928 65.5762309 208.570601 52.3109649 216.98365 57.4932415"></polygon>
                            <polygon id="Fill-11" fill="#1B91A6" points="208.572457 52.3118936 216.985507 57.4910745 229.519991 55.9524894 221.110036 50.7702128"></polygon>
                            <polygon id="Fill-12" fill="#00294F" points="198.198323 59.8008096 189.788368 54.618533 189.90904 41.3501713 198.32209 46.5324479"></polygon>
                            <polygon id="Fill-13" fill="#1B91A6" points="173.151632 62.8767415 164.741677 57.6975606 189.795175 54.6203904 198.20513 59.7995713"></polygon>
                            <polygon id="Fill-14" fill="#00294F" points="173.03096 76.1395309 164.61791 70.96035 164.741677 57.695084 173.151632 62.8773606"></polygon>
                            <polygon id="Fill-15" fill="#1B91A6" points="184.162547 35.0333043 175.749498 29.8510277 202.579049 26.5323894 210.992099 31.714666"></polygon>
                            <polygon id="Fill-16" fill="#00294F" points="173.275709 49.6021883 164.862659 44.4199117 164.986426 31.15155 173.396381 36.3338266"></polygon>
                            <polygon id="Fill-17" fill="#1B91A6" points="173.520457 23.0629883 165.107408 17.8838074 177.638798 16.3421266 186.048753 21.5244032"></polygon>
                            <polygon id="Fill-18" fill="#00294F" points="173.275709 49.6021883 164.862659 44.4199117 165.107099 17.8831883 173.520148 23.0623691"></polygon>
                            <polygon id="Fill-19" fill="#00294F" points="186.051229 21.5256415 177.638179 16.3433649 177.761946 3.08119468 186.171901 8.26347128"></polygon>
                            <polygon id="Fill-20" fill="#1B91A6" points="177.759161 3.08026596 186.169117 8.25944681 211.238085 5.1822766 202.825036 0.00309574468"></polygon>
                            <polygon id="Fill-21" fill="#147383" points="152.592417 26.2299351 144.182462 21.0507543 144.303135 7.7854883 152.716184 12.9677649"></polygon>
                            <polygon id="Fill-22" fill="#00294F" points="139.551108 80.8360851 131.138058 75.6538085 131.626937 22.5989362 140.036892 27.778117"></polygon>
                            <polygon id="Fill-23" fill="#00294F" points="127.52778 29.3089628 119.117825 24.1297819 119.238498 10.864516 127.648453 16.0467926"></polygon>
                            <polygon id="Fill-24" fill="#1B91A6" points="127.648762 16.0461734 119.238807 10.8669926 156.836072 6.24504574 165.242933 11.4273223"></polygon>
                            <polygon id="Fill-25" fill="#147383" points="94.8685022 86.1130915 86.4585471 80.9308149 86.5854081 67.6686447 94.9984574 72.8478255"></polygon>
                            <polygon id="Fill-26" fill="#00294F" points="82.3389686 87.6519862 73.9259193 82.4728053 74.0496861 69.2137309 82.4596413 74.3960074"></polygon>
                            <polygon id="Fill-27" fill="#1B91A6" points="82.4599507 74.3966266 74.0499955 69.21435 99.11587 66.1309883 107.525825 71.3101691"></polygon>
                            <polygon id="Fill-28" fill="#00294F" points="107.526135 71.3101691 99.1161794 66.1309883 99.4751031 26.3351904 107.888152 31.517467"></polygon>
                            <polygon id="Fill-29" fill="#1B91A6" points="107.887224 31.517467 99.4772691 26.3351904 112.005565 24.7966053 120.418614 29.9757862"></polygon>
                            <polygon id="Fill-30" fill="#00294F" points="82.8272287 34.5949468 74.4172735 29.415766 74.5379462 16.1443085 82.9509955 21.3265851"></polygon>
                            <polygon id="Fill-31" fill="#1B91A6" points="82.9494484 21.3262755 74.5394933 16.1439989 99.5991794 13.0668287 108.009135 18.2460096"></polygon>
                            <polygon id="Fill-32" fill="#00294F" points="69.9307265 75.9355213 61.5207713 70.7532447 61.8796951 30.9543511 70.2927444 36.1366277"></polygon>
                            <polygon id="Fill-33" fill="#1B91A6" points="70.2918161 36.1353894 61.881861 30.9531128 74.4163453 29.4145277 82.8263004 34.5937085"></polygon>
                            <polygon id="Fill-34" fill="#00C2D7" points="58.6524753 76.952783 58.7762422 63.6844213 46.244852 65.2291979 46.1303677 78.4913681"></polygon>
                            <polygon id="Fill-35" fill="#00C2D7" points="58.9031031 50.4197745 59.02687 37.1514128 46.4892915 38.6899979 46.3655247 51.9614553"></polygon>
                            <polygon id="Fill-36" fill="#00C2D7" points="9.0226009 30.0476074 8.41304933 96.3708415 46.0072197 91.7550862 46.1278924 78.4898202 21.0434529 81.5731819 21.1424664 68.3141074 46.2423767 65.22765 46.3661435 51.962384 21.2383857 55.0488415 21.3373991 41.7804798 46.4899103 38.6909266 46.610583 25.4287564"></polygon>
                            <polygon id="Fill-37" fill="#00C2D7" points="82.3389686 87.6519862 107.404843 84.5717202 107.525516 71.30955 82.4689238 74.389816"></polygon>
                            <polygon id="Fill-38" fill="#00C2D7" points="107.887224 31.517467 107.519018 71.2915947 120.050408 69.7530096 120.418614 29.9757862"></polygon>
                            <polygon id="Fill-39" fill="#00C2D7" points="82.9630628 21.3247277 82.8269193 34.5961851 107.886605 31.5159191 108.010372 18.2475574"></polygon>
                            <polygon id="Fill-40" fill="#00C2D7" points="69.9245381 75.9355213 82.4621166 74.3969362 82.8272287 34.5949468 70.2927444 36.1366277"></polygon>
                            <polygon id="Fill-41" fill="#00C2D7" points="165.24417 11.4282511 127.65 16.0471021 127.529327 29.3092723 140.001928 27.7768787 139.550179 80.8348468 152.084664 79.2962617 152.536413 26.2382936 165.123498 24.6904213"></polygon>
                            <polygon id="Fill-42" fill="#00C2D7" points="216.985197 57.491384 216.86143 70.75665 229.395915 69.2149691 229.519682 55.9527989"></polygon>
                            <polygon id="Fill-43" fill="#00C2D7" points="173.03096 76.1395309 198.084457 73.0623606 198.20513 59.8001904 173.151632 62.8773606"></polygon>
                            <polygon id="Fill-44" fill="#00C2D7" points="186.048135 21.5240936 173.519839 23.0626787 173.275399 49.6024979 198.328897 46.5284234 198.198942 59.7998809 210.73652 58.2612957 210.993336 31.7152851 185.927462 34.7955511"></polygon>
                            <polygon id="Fill-45" fill="#00C2D7" points="186.051229 21.5225457 211.117103 18.4422798 211.24087 5.18010957 186.171901 8.26037553"></polygon>
                        </g>
                    </g>
                </g>
            </g>
        </g>
    </g>
</svg>