<?xml version="1.0" encoding="UTF-8" standalone="no"?>
<svg
   xmlns:dc="http://purl.org/dc/elements/1.1/"
   xmlns:cc="http://creativecommons.org/ns#"
   xmlns:rdf="http://www.w3.org/1999/02/22-rdf-syntax-ns#"
   xmlns:svg="http://www.w3.org/2000/svg"
   xmlns="http://www.w3.org/2000/svg"
   xmlns:sodipodi="http://sodipodi.sourceforge.net/DTD/sodipodi-0.dtd"
   xmlns:inkscape="http://www.inkscape.org/namespaces/inkscape"
   version="1.1"
   id="svg2"
   xml:space="preserve"
   width="4412.2266"
   height="2666.6667"
   viewBox="0 0 4412.2266 2666.6667"
   sodipodi:docname="Predictive analysis.eps"><metadata
     id="metadata8"><rdf:RDF><cc:Work
         rdf:about=""><dc:format>image/svg+xml</dc:format><dc:type
           rdf:resource="http://purl.org/dc/dcmitype/StillImage" /></cc:Work></rdf:RDF></metadata><defs
     id="defs6" /><sodipodi:namedview
     pagecolor="#ffffff"
     bordercolor="#666666"
     borderopacity="1"
     objecttolerance="10"
     gridtolerance="10"
     guidetolerance="10"
     inkscape:pageopacity="0"
     inkscape:pageshadow="2"
     inkscape:window-width="640"
     inkscape:window-height="480"
     id="namedview4" /><g
     id="g10"
     inkscape:groupmode="layer"
     inkscape:label="ink_ext_XXXXXX"
     transform="matrix(1.3333333,0,0,-1.3333333,0,2666.6667)"><g
       id="g12"
       transform="scale(0.1)"><path
         d="M 0,0 H 33091.7 V 20000 H 0 Z"
         style="fill:#ffffff;fill-opacity:1;fill-rule:nonzero;stroke:none"
         id="path14" /><path
         d="m 29276,1183.2 c 3948.3,5403.3 2036.1,12576.7 -436.1,14264.5 -2332.3,1592.3 -4181.1,947.1 -6210.8,301.9 -1092.1,-347.2 -2236.5,-694.3 -3536.9,-692.9 -3996.5,4.2 -3631.8,4251.4 -9219.25,3835.3 C 4430.57,18486.8 2320.05,12885.5 2035.83,8713.5 1746.18,4461.8 2686.58,2155.8 3249.43,1183.2 H 29276"
         style="fill:#dcf4ff;fill-opacity:1;fill-rule:nonzero;stroke:none"
         id="path16" /><path
         d="m 23953.3,4751.7 -413.5,164.2 -413.6,164.3 126.7,638.3 c -222,154.5 -413.4,341.9 -569.7,553.1 l -634.3,-145.4 -176.3,408.5 -176.3,408.6 540.9,361.8 c -46.4,258.6 -51.5,526.4 -11.6,793.8 l -551.3,345.8 164.2,413.5 164.2,413.6 638.4,-126.6 c 154.4,221.9 341.8,413.3 553,569.6 l -145.4,634.3 408.6,176.3 408.5,176.3 361.8,-540.9 c 141.8,25.5 286.3,38.5 432,38.5 120.1,0 241,-8.9 361.8,-26.9 l 345.8,551.4 413.6,-164.2 413.5,-164.3 -126.6,-638.4 c 221.9,-154.4 413.3,-341.8 569.6,-553 l 634.3,145.4 176.3,-408.6 176.3,-408.5 -540.9,-361.8 c 46.4,-258.6 51.5,-526.4 11.6,-793.8 l 551.4,-345.8 -164.2,-413.5 -164.2,-413.6 -638.4,126.6 c -154.5,-221.9 -341.9,-413.3 -553,-569.6 l 145.3,-634.3 -408.5,-176.3 -408.6,-176.3 -361.8,540.9 c -141.7,-25.5 -286.3,-38.5 -432,-38.5 -120.1,0 -241,8.9 -361.8,26.9 l -345.8,-551.4 m 707.5,4655.8 c -664.1,0 -1292,-399 -1552,-1053.7 -340.2,-856.8 78.6,-1827.3 935.4,-2167.5 202.1,-80.3 410.6,-118.3 615.6,-118.3 664,0 1291.9,399 1551.9,1053.7 340.3,856.8 -78.5,1827.3 -935.4,2167.5 -202.1,80.3 -410.5,118.3 -615.5,118.3"
         style="fill:#bee9ff;fill-opacity:1;fill-rule:nonzero;stroke:none"
         id="path18" /><path
         d="m 27729.5,10562.5 -126.9,318.4 c -138.3,4.5 -276.9,31.4 -410.2,81.4 l -238.8,-246 -195,130.1 -195,130.1 135.5,314.9 c -97.3,104 -175.3,221.6 -232.6,347.5 l -342.7,-5 -45.9,229.8 -45.9,229.9 318.5,126.8 c 4.5,138.4 31.3,276.9 81.3,410.3 l -246,238.7 130.1,195 130.1,195 314.9,-135.5 c 104,97.3 221.6,175.3 347.6,232.6 l -5.1,342.7 229.9,45.9 229.8,45.9 126.9,-318.4 c 138.3,-4.6 276.8,-31.4 410.2,-81.4 l 238.8,246 195,-130.1 194.9,-130.1 -135.5,-314.9 c 97.4,-104 175.4,-221.6 232.6,-347.6 l 342.8,5.1 45.9,-229.8 45.8,-229.9 -318.4,-126.9 c -4.5,-138.3 -31.4,-276.8 -81.4,-410.2 l 246,-238.8 -130.1,-194.9 -130.1,-195 -314.9,135.5 c -103.9,-97.4 -221.5,-175.3 -347.5,-232.6 l 5.1,-342.8 -229.9,-45.8 -229.8,-45.9 m -82.4,2493.6 c -284,0 -562.8,-137.3 -732.3,-391.3 -269.5,-404 -160.5,-950 243.4,-1219.5 150,-100.1 319.6,-148 487.3,-148 284,0 562.8,137.4 732.2,391.4 269.6,404 160.6,949.9 -243.4,1219.5 -149.9,100.1 -319.5,147.9 -487.2,147.9"
         style="fill:#bee9ff;fill-opacity:1;fill-rule:nonzero;stroke:none"
         id="path20" /><path
         d="m 4598.65,2640.6 -105.5,264.8 c -115.01,3.7 -230.18,26 -341.08,67.6 l -198.55,-204.5 -162.12,108.1 -162.11,108.2 112.64,261.9 c -80.94,86.4 -145.77,184.2 -193.4,288.9 l -284.98,-4.2 -38.14,191.1 -38.15,191.2 264.78,105.5 c 3.76,115 26.09,230.1 67.64,341 l -204.53,198.6 108.17,162.1 108.16,162.1 261.87,-112.6 c 86.45,80.9 184.22,145.7 288.98,193.4 l -4.23,285 191.12,38.1 191.11,38.1 105.5,-264.7 c 115.01,-3.8 230.18,-26.1 341.08,-67.7 l 198.56,204.5 162.1,-108.1 162.12,-108.2 -112.64,-261.8 c 80.94,-86.5 145.77,-184.3 193.4,-289 l 284.99,4.2 38.14,-191.1 38.14,-191.1 -264.77,-105.5 c -3.77,-115 -26.1,-230.2 -67.66,-341.1 l 204.54,-198.6 -108.17,-162.1 -108.17,-162.1 -261.85,112.7 c -86.45,-81 -184.23,-145.8 -288.98,-193.4 l 4.22,-285 -191.11,-38.2 -191.12,-38.1 M 4530.17,4714 c -236.16,0 -467.95,-114.2 -608.86,-325.4 -224.12,-335.9 -133.52,-789.9 202.37,-1014 124.71,-83.2 265.69,-123 405.14,-123 236.16,0 467.95,114.2 608.85,325.4 224.12,335.9 133.52,789.9 -202.37,1014 -124.71,83.2 -265.68,123 -405.13,123"
         style="fill:#bee9ff;fill-opacity:1;fill-rule:nonzero;stroke:none"
         id="path22" /><path
         d="m 6323.05,5720.2 -376.9,83.9 -376.89,84 20.87,564.4 c -211.38,101.8 -401.08,236.1 -563.99,395.6 l -523.56,-211.6 -207.15,325.9 -207.16,325.8 413.79,384.3 c -75.28,215.2 -116.38,444 -118.91,678.6 l -519.91,220.6 83.94,376.9 83.93,376.9 564.39,-20.9 c 101.85,211.4 236.16,401.1 395.65,564 l -211.61,523.6 325.85,207.1 325.86,207.2 384.27,-413.8 c 215.21,75.3 443.97,116.4 678.6,118.9 l 220.61,519.9 376.89,-83.9 181.16,-40.4 -137.53,-993.5 h 197.23 L 7289.47,9603 c -136.4,85.6 -289.49,149.8 -455.69,186.8 -106.05,23.6 -211.94,35 -316.25,35 -663.79,0 -1262.3,-459.2 -1412.59,-1134 -173.91,-780.9 318.14,-1555 1099.05,-1728.9 106.05,-23.6 211.94,-34.9 316.25,-34.9 663.78,0 1262.3,459.1 1412.6,1134 91.67,411.6 -1.7,821.3 -224.86,1142.2 h 961.24 l -133.51,-124 c 75.28,-215.2 116.39,-444 118.92,-678.6 l 519.91,-220.6 -83.94,-376.9 -83.93,-376.9 -564.4,20.9 c -101.85,-211.4 -236.15,-401.1 -395.65,-564 l 211.61,-523.6 -325.85,-207.1 -325.86,-207.1 -384.27,413.7 c -215.21,-75.2 -443.97,-116.4 -678.59,-118.9 l -220.61,-519.9"
         style="fill:#bee9ff;fill-opacity:1;fill-rule:nonzero;stroke:none"
         id="path24" /><path
         d="M 6907.43,3293.1 H 22936.6 V 8148.4 H 6907.43 V 3293.1"
         style="fill:#3f567e;fill-opacity:1;fill-rule:nonzero;stroke:none"
         id="path26" /><path
         d="M 5967.69,8148.4 H 24660.3 v 232.8 H 5967.69 v -232.8"
         style="fill:#223749;fill-opacity:1;fill-rule:nonzero;stroke:none"
         id="path28" /><path
         d="m 21064.3,1142.4 h 2991.1 v 7006 h -2991.1 v -7006"
         style="fill:#49597d;fill-opacity:1;fill-rule:nonzero;stroke:none"
         id="path30" /><path
         d="m 21064.3,1142.4 h -240.6 v 7006 h 240.6 v -7006"
         style="fill:#647ba3;fill-opacity:1;fill-rule:nonzero;stroke:none"
         id="path32" /><path
         d="m 7051.38,1142.3 h -287.91 v 7006.1 h 287.91 V 1142.3"
         style="fill:#49597d;fill-opacity:1;fill-rule:nonzero;stroke:none"
         id="path34" /><path
         d="m 14704.6,8362.4 9955.7,10.7 v 16.2 l -9955.7,-10.6 v -16.3"
         style="fill:#000000;fill-opacity:1;fill-rule:nonzero;stroke:none"
         id="path36" /><path
         d="M 6549.74,8367.7 H 12571.1 V 8384 H 6549.74 v -16.3"
         style="fill:#000000;fill-opacity:1;fill-rule:nonzero;stroke:none"
         id="path38" /><path
         d="m 14717.9,8140.2 h 9942.4 v 16.3 h -9942.4 v -16.3"
         style="fill:#000000;fill-opacity:1;fill-rule:nonzero;stroke:none"
         id="path40" /><path
         d="m 12582.5,8131.5 v 16.2 l -6032.75,8.8 -0.03,-16.3 6032.78,-8.7"
         style="fill:#000000;fill-opacity:1;fill-rule:nonzero;stroke:none"
         id="path42" /><path
         d="m 5962.31,8140.2 h 2857.78 v 16.3 H 5973.07 v 216.6 h 3227.41 v 16.2 H 5962.31 v -249.1"
         style="fill:#000000;fill-opacity:1;fill-rule:nonzero;stroke:none"
         id="path44" /><path
         d="m 24048.4,6561 h 16.3 c 0,0 -1.2,1560.5 -1.2,1587.4 h -16.2 c 0,-26.9 1.1,-1587.4 1.1,-1587.4"
         style="fill:#000000;fill-opacity:1;fill-rule:nonzero;stroke:none"
         id="path46" /><path
         d="m 20815.5,1142.4 h 16.3 v 7006 h -16.3 v -7006"
         style="fill:#000000;fill-opacity:1;fill-rule:nonzero;stroke:none"
         id="path48" /><path
         d="m 21056.2,4726.1 h 16.2 v 3422.3 h -16.2 V 4726.1"
         style="fill:#000000;fill-opacity:1;fill-rule:nonzero;stroke:none"
         id="path50" /><path
         d="m 21341.6,7573.6 273.3,244.8 -10.8,12.1 -273.4,-244.8 10.9,-12.1"
         style="fill:#000000;fill-opacity:1;fill-rule:nonzero;stroke:none"
         id="path52" /><path
         d="m 21306.9,7385.3 273.4,244.9 -10.9,12.1 -273.3,-244.9 10.8,-12.1"
         style="fill:#000000;fill-opacity:1;fill-rule:nonzero;stroke:none"
         id="path54" /><path
         d="m 17460.9,3285 h 3362.8 v 16.2 H 17460.9 V 3285"
         style="fill:#000000;fill-opacity:1;fill-rule:nonzero;stroke:none"
         id="path56" /><path
         d="m 7040.4,1142.3 h 21.95 V 8148.4 H 7040.4 V 1142.3"
         style="fill:#000000;fill-opacity:1;fill-rule:nonzero;stroke:none"
         id="path58" /><path
         d="m 9660.38,8566.7 h 781.52 l -449.63,2191.8 h 1109.53 l 449.6,-2191.8 h 779 c 109.9,0 232.5,-89.1 273.8,-199 H 9536.32 c -41.34,109.9 14.2,199 124.06,199"
         style="fill:#0a161e;fill-opacity:1;fill-rule:nonzero;stroke:none"
         id="path60" /><path
         d="m 7261.84,9403.4 70.64,510.3 440.8,3184.2 c 20.94,151.3 160.57,273.9 311.86,273.9 H 14259 l 1.2,8.1 c 155.4,0 264.4,-126.5 242.9,-282 l -511.4,-3694.5 c -15.3,-110.4 -101.6,-200.2 -192.5,-200.2 H 7390.82 l 1.12,8 c -86.55,0 -144.79,86.1 -130.1,192.2"
         style="fill:#1e2b46;fill-opacity:1;fill-rule:nonzero;stroke:none"
         id="path62" /><path
         d="m 10301.8,8434.1 h 1109.5 l -476.9,2324.4 H 9824.91 l 476.89,-2324.4"
         style="fill:#223749;fill-opacity:1;fill-rule:nonzero;stroke:none"
         id="path64" /><path
         d="m 7135.25,9913.7 440.79,3184.2 c 20.95,151.3 160.58,273.9 311.87,273.9 h 6173.89 c 151.3,0 257,-122.6 236,-273.9 L 13857,9913.7 H 7135.25"
         style="fill:#49597d;fill-opacity:1;fill-rule:nonzero;stroke:none"
         id="path66" /><path
         d="m 13857,9913.7 -70.6,-510.3 c -14.7,-106.1 -96.7,-192.2 -183.3,-192.2 H 7194.71 c -86.54,0 -144.79,86.1 -130.1,192.2 l 70.64,510.3 H 13857"
         style="fill:#1e2b46;fill-opacity:1;fill-rule:nonzero;stroke:none"
         id="path68" /><path
         d="m 7311.73,10051.9 420.49,3037.5 c 11.02,79.6 86.82,144.2 169.31,144.2 h 6108.37 c 82.5,0 140.4,-64.6 129.4,-144.2 l -420.5,-3037.5 H 7311.73"
         style="fill:#8cd2f9;fill-opacity:1;fill-rule:nonzero;stroke:none"
         id="path70" /><path
         d="m 9368.96,8367.7 c -41.34,109.9 14.21,199 124.07,199 h 2670.07 c 109.8,0 232.4,-89.1 273.7,-199 v 0 H 9368.96"
         style="fill:#122330;fill-opacity:1;fill-rule:nonzero;stroke:none"
         id="path72" /><path
         d="M 7193.59,9203.2 H 13602 c 90.8,0 177.2,89.8 192.4,200.2 l 511.5,3694.5 c 21.5,155.5 -87.5,282 -243,282 l -2.2,-16.1 c 146.6,0 249.4,-119.3 229.1,-265.9 l -511.4,-3694.5 c -14.1,-101.5 -92.2,-184.1 -174.2,-184.1 H 7195.82 l -2.23,-16.1"
         style="fill:#21111d;fill-opacity:1;fill-rule:nonzero;stroke:none"
         id="path74" /><path
         d="m 7513.54,9557.8 14.35,9.3 -123.53,213 -14.34,-9.3 123.52,-213"
         style="fill:#21111d;fill-opacity:1;fill-rule:nonzero;stroke:none"
         id="path76" /><path
         d="m 7499.66,9457 14.24,9.5 -124.33,207.2 -14.24,-9.5 124.33,-207.2"
         style="fill:#21111d;fill-opacity:1;fill-rule:nonzero;stroke:none"
         id="path78" /><path
         d="m 11016.4,9024.3 12.3,7.9 -103.4,133.2 -12.3,-7.9 103.4,-133.2"
         style="fill:#21111d;fill-opacity:1;fill-rule:nonzero;stroke:none"
         id="path80" /><path
         d="m 11019.4,8947.7 12.2,8.1 -92.9,117.3 -12.2,-8.1 92.9,-117.3"
         style="fill:#21111d;fill-opacity:1;fill-rule:nonzero;stroke:none"
         id="path82" /><path
         d="m 7302.6,10043.9 h 6415.1 l 2.3,16.1 H 7320.88 l 419.37,3029.4 c 10.39,75 82.24,136.1 160.17,136.1 l 2.22,16.1 c -86.79,0 -166.84,-68.3 -178.45,-152.2 L 7302.6,10043.9"
         style="fill:#21111d;fill-opacity:1;fill-rule:nonzero;stroke:none"
         id="path84" /><path
         d="M 13286.4,10258.3 H 7832.76 c -103.9,0 -175.26,84.1 -159.41,187.8 l 351.64,2301.2 c 15.85,103.7 112.92,187.8 216.81,187.8 h 5453.6 c 103.9,0 175.3,-84.1 159.4,-187.8 l -351.6,-2301.2 c -15.8,-103.7 -112.9,-187.8 -216.8,-187.8 m -5148.38,470.6 -7,-45.9 h 4989.68 l 7,45.9 H 8138.02 m 78.03,510.6 -28.62,-187.3 h 4989.77 l 28.6,187.3 H 8216.05 m 2418.05,625.8 -41,-268.6 h 2667.3 l 41,268.6 h -2667.3 m 61,398.8 -41.1,-268.6 h 2667.3 l 41,268.6 h -2667.2 m 60.9,398.8 -41.1,-268.7 h 2667.3 l 41.1,268.7 H 10756"
         style="fill:#c6e9fc;fill-opacity:1;fill-rule:nonzero;stroke:none"
         id="path86" /><path
         d="m 13382.2,12394.2 h -2667.3 l 41.1,268.7 h 2667.3 l -41.1,-268.7"
         style="fill:#b0d5fa;fill-opacity:1;fill-rule:nonzero;stroke:none"
         id="path88" /><path
         d="M 13321.3,11995.5 H 10654 l 41.1,268.6 h 2667.2 l -41,-268.6"
         style="fill:#b0d5fa;fill-opacity:1;fill-rule:nonzero;stroke:none"
         id="path90" /><path
         d="m 13260.4,11596.7 h -2667.3 l 41,268.6 h 2667.3 l -41,-268.6"
         style="fill:#b0d5fa;fill-opacity:1;fill-rule:nonzero;stroke:none"
         id="path92" /><path
         d="M 11260.2,12662.9 H 10756 l -41.1,-268.7 h 504.2 l 41.1,268.7"
         style="fill:#9bc1f9;fill-opacity:1;fill-rule:nonzero;stroke:none"
         id="path94" /><path
         d="m 11931.8,12264.1 h -1236.7 l -41.1,-268.6 h 1236.7 l 41.1,268.6"
         style="fill:#9bc1f9;fill-opacity:1;fill-rule:nonzero;stroke:none"
         id="path96" /><path
         d="m 11227.8,11865.3 h -593.7 l -41,-268.6 h 593.7 l 41,268.6"
         style="fill:#9bc1f9;fill-opacity:1;fill-rule:nonzero;stroke:none"
         id="path98" /><path
         d="m 8164.31,11547.2 h 1856.29 l -304.25,810.4 -316.47,-413.8 -144.76,259.2 -222.16,-311.4 -114.08,620.6 -345.26,-682.9 -99.82,163.2 -309.49,-445.3"
         style="fill:#9bc1f9;fill-opacity:1;fill-rule:nonzero;stroke:none"
         id="path100" /><path
         d="M 13177.2,11052.2 H 8187.43 l 28.62,187.3 h 4989.75 l -28.6,-187.3"
         style="fill:#b0d5fa;fill-opacity:1;fill-rule:nonzero;stroke:none"
         id="path102" /><path
         d="M 13147.6,10858.8 H 8157.87 l 7.01,45.8 h 4989.72 l -7,-45.8"
         style="fill:#9bc1f9;fill-opacity:1;fill-rule:nonzero;stroke:none"
         id="path104" /><path
         d="M 13120.7,10683 H 8131.02 l 7,45.9 h 4989.68 l -7,-45.9"
         style="fill:#b0d5fa;fill-opacity:1;fill-rule:nonzero;stroke:none"
         id="path106" /><path
         d="M 13093.9,10507.3 H 8104.16 l 7.01,45.8 h 4989.73 l -7,-45.8"
         style="fill:#9bc1f9;fill-opacity:1;fill-rule:nonzero;stroke:none"
         id="path108" /><path
         d="m 17719.7,8553.5 h 781.6 l -449.7,2191.9 h 1109.5 l 449.7,-2191.9 h 779 c 109.8,0 232.4,-89.1 273.8,-198.9 h -3067.9 c -41.4,109.8 14.2,198.9 124,198.9"
         style="fill:#0a161e;fill-opacity:1;fill-rule:nonzero;stroke:none"
         id="path110" /><path
         d="m 15321.2,9390.3 70.6,510.2 440.8,3184.2 c 21,151.3 160.6,274 311.9,274 h 6173.9 l 1.1,8 c 155.5,0 264.5,-126.5 243,-282 L 22051,9390.2 c -15.3,-110.3 -101.6,-200.2 -192.4,-200.2 h -6408.4 l 1.1,8.1 c -86.5,0 -144.8,86 -130.1,192.2"
         style="fill:#1e2b46;fill-opacity:1;fill-rule:nonzero;stroke:none"
         id="path112" /><path
         d="m 18361.1,8420.9 h 1109.5 l -476.8,2324.5 h -1109.5 l 476.8,-2324.5"
         style="fill:#223749;fill-opacity:1;fill-rule:nonzero;stroke:none"
         id="path114" /><path
         d="m 15194.6,9900.5 440.8,3184.2 c 20.9,151.3 160.6,274 311.9,274 h 6173.9 c 151.3,0 256.9,-122.7 236,-274 l -440.8,-3184.2 h -6721.8"
         style="fill:#49597d;fill-opacity:1;fill-rule:nonzero;stroke:none"
         id="path116" /><path
         d="m 21916.4,9900.5 -70.6,-510.3 c -14.7,-106.1 -96.8,-192.1 -183.3,-192.1 h -6408.4 c -86.6,0 -144.8,86 -130.1,192.1 l 70.6,510.3 h 6721.8"
         style="fill:#1e2b46;fill-opacity:1;fill-rule:nonzero;stroke:none"
         id="path118" /><path
         d="m 15371.1,10038.8 420.5,3037.4 c 11,79.6 86.8,144.2 169.3,144.2 h 6108.4 c 82.5,0 140.4,-64.6 129.4,-144.2 l -420.5,-3037.4 h -6407.1"
         style="fill:#8cd2f9;fill-opacity:1;fill-rule:nonzero;stroke:none"
         id="path120" /><path
         d="m 17428.3,8354.6 c -41.3,109.8 14.2,198.9 124.1,198.9 h 2670 c 109.9,0 232.5,-89.1 273.8,-198.9 v 0 h -3067.9"
         style="fill:#122330;fill-opacity:1;fill-rule:nonzero;stroke:none"
         id="path122" /><path
         d="m 15253,9190 h 6408.4 c 90.8,0 177.1,89.9 192.4,200.2 l 511.4,3694.5 c 21.6,155.5 -87.4,282 -242.9,282 l -2.2,-16.1 c 146.6,0 249.4,-119.2 229.1,-265.9 l -511.5,-3694.5 c -14,-101.5 -92.1,-184.1 -174.1,-184.1 h -6408.4 l -2.2,-16.1"
         style="fill:#21111d;fill-opacity:1;fill-rule:nonzero;stroke:none"
         id="path124" /><path
         d="m 15572.9,9544.6 14.4,9.4 -123.6,213 -14.3,-9.4 123.5,-213"
         style="fill:#21111d;fill-opacity:1;fill-rule:nonzero;stroke:none"
         id="path126" /><path
         d="m 15559,9443.8 14.3,9.6 -124.4,207.2 -14.2,-9.6 124.3,-207.2"
         style="fill:#21111d;fill-opacity:1;fill-rule:nonzero;stroke:none"
         id="path128" /><path
         d="m 19075.8,9011.1 12.3,8 -103.4,133.2 -12.3,-8 103.4,-133.2"
         style="fill:#21111d;fill-opacity:1;fill-rule:nonzero;stroke:none"
         id="path130" /><path
         d="m 19078.7,8934.5 12.2,8.1 -92.9,117.3 -12.1,-8.1 92.8,-117.3"
         style="fill:#21111d;fill-opacity:1;fill-rule:nonzero;stroke:none"
         id="path132" /><path
         d="m 15362,10030.8 h 6415.1 l 2.2,16 h -6399.1 l 419.4,3029.4 c 10.4,75.1 82.3,136.2 160.2,136.2 l 2.2,16 c -86.8,0 -166.8,-68.2 -178.5,-152.2 L 15362,10030.8"
         style="fill:#21111d;fill-opacity:1;fill-rule:nonzero;stroke:none"
         id="path134" /><path
         d="M 21302.1,10287.1 H 15923 c -102.5,0 -173.8,84.2 -159.3,188.1 l 321.1,2303.3 c 14.5,103.8 109.3,188 211.8,188 h 5379.1 c 102.5,0 173.8,-84.2 159.3,-188 l -321.1,-2303.3 c -14.5,-103.9 -109.3,-188.1 -211.8,-188.1 m -224.6,2093.5 -219.8,-1576 h 256.6 l 219.7,1576 h -256.5 m -302.7,435.9 -280.5,-2011.9 h 256.5 l 280.5,2011.9 h -256.5 m -442.3,-602.3 -195,-1398.3 h 256.6 l 194.9,1398.3 h -256.5 m -324.9,239.7 -228.4,-1638 h 256.6 l 228.4,1638 h -256.6 m -426,-485.6 -160.7,-1152.4 h 256.6 l 160.6,1152.4 h -256.5 m -1034.5,805.9 c -311.8,-19.4 -593,-279.4 -637.3,-597.5 -44.4,-318.1 164.3,-578.1 470.7,-597.4 l 166.6,1194.9"
         style="fill:#c6e9fc;fill-opacity:1;fill-rule:nonzero;stroke:none"
         id="path136" /><path
         d="m 20750.8,10804.6 h -256.5 l 280.5,2011.9 h 256.5 l -280.5,-2011.9"
         style="fill:#b0d5fa;fill-opacity:1;fill-rule:nonzero;stroke:none"
         id="path138" /><path
         d="m 20394.1,10815.9 h -256.6 l 195,1398.3 h 256.5 l -194.9,-1398.3"
         style="fill:#b0d5fa;fill-opacity:1;fill-rule:nonzero;stroke:none"
         id="path140" /><path
         d="m 21114.3,10804.6 h -256.6 l 219.8,1576 h 256.5 l -219.7,-1576"
         style="fill:#b0d5fa;fill-opacity:1;fill-rule:nonzero;stroke:none"
         id="path142" /><path
         d="m 20035.8,10815.9 h -256.6 l 228.4,1638 h 256.6 l -228.4,-1638"
         style="fill:#b0d5fa;fill-opacity:1;fill-rule:nonzero;stroke:none"
         id="path144" /><path
         d="m 19677.5,10815.9 h -256.6 l 160.7,1152.4 h 256.5 l -160.6,-1152.4"
         style="fill:#b0d5fa;fill-opacity:1;fill-rule:nonzero;stroke:none"
         id="path146" /><path
         d="m 20750.8,10804.6 h -256.5 l 217.4,1559.5 h 256.6 l -217.5,-1559.5"
         style="fill:#9bc1f9;fill-opacity:1;fill-rule:nonzero;stroke:none"
         id="path148" /><path
         d="m 20394.1,10815.9 h -256.6 l 150,1076 h 256.6 l -150,-1076"
         style="fill:#9bc1f9;fill-opacity:1;fill-rule:nonzero;stroke:none"
         id="path150" /><path
         d="m 21114.3,10804.6 h -256.6 l 170.7,1224.1 h 256.6 l -170.7,-1224.1"
         style="fill:#9bc1f9;fill-opacity:1;fill-rule:nonzero;stroke:none"
         id="path152" /><path
         d="m 20035.8,10815.9 h -256.6 l 175.8,1260.5 h 256.5 l -175.7,-1260.5"
         style="fill:#9bc1f9;fill-opacity:1;fill-rule:nonzero;stroke:none"
         id="path154" /><path
         d="m 19677.5,10815.9 h -256.6 l 123.6,886.8 h 256.6 l -123.6,-886.8"
         style="fill:#9bc1f9;fill-opacity:1;fill-rule:nonzero;stroke:none"
         id="path156" /><path
         d="m 21419.5,12488.9 -226.4,-142.9 66.4,-11.9 -471.9,-609.5 -187.5,391.8 -566,-961.1 -201.7,261.8 -243.7,-370.7 -83.8,77.7 -208.8,-320.8 54,-30.6 161.7,248.4 83.5,-77.5 236,359 205,-266.1 553.4,939.8 179.8,-375.8 540.6,698.2 31.6,-59.4 77.8,249.6"
         style="fill:#5183bf;fill-opacity:1;fill-rule:nonzero;stroke:none"
         id="path158" /><path
         d="m 16291.8,10770.3 h -66.6 l 48.3,346.5 h 66.6 l -48.3,-346.5"
         style="fill:#9bc1f9;fill-opacity:1;fill-rule:nonzero;stroke:none"
         id="path160" /><path
         d="m 16417.7,10813.6 h -66.6 l 36.3,259.9 h 66.5 l -36.2,-259.9"
         style="fill:#9bc1f9;fill-opacity:1;fill-rule:nonzero;stroke:none"
         id="path162" /><path
         d="m 16531.5,10770.3 h -66.6 l 48.4,346.5 h 66.5 l -48.3,-346.5"
         style="fill:#9bc1f9;fill-opacity:1;fill-rule:nonzero;stroke:none"
         id="path164" /><path
         d="m 16630.6,10621.3 h -66.6 l 91.4,655.1 h 66.5 l -91.3,-655.1"
         style="fill:#86b6ef;fill-opacity:1;fill-rule:nonzero;stroke:none"
         id="path166" /><path
         d="m 16762,10704.2 h -66.6 l 66.8,478.7 h 66.5 l -66.7,-478.7"
         style="fill:#9bc1f9;fill-opacity:1;fill-rule:nonzero;stroke:none"
         id="path168" /><path
         d="m 17833.7,10621.3 h -66.5 l 91.3,655.1 h 66.5 l -91.3,-655.1"
         style="fill:#86b6ef;fill-opacity:1;fill-rule:nonzero;stroke:none"
         id="path170" /><path
         d="m 17969.9,10738.4 h -66.6 l 57.3,410.3 h 66.5 l -57.2,-410.3"
         style="fill:#9bc1f9;fill-opacity:1;fill-rule:nonzero;stroke:none"
         id="path172" /><path
         d="m 18096.7,10847.8 h -66.6 l 26.7,191.5 h 66.6 l -26.7,-191.5"
         style="fill:#9bc1f9;fill-opacity:1;fill-rule:nonzero;stroke:none"
         id="path174" /><path
         d="m 18196.7,10790.8 h -66.6 l 42.6,305.5 h 66.6 l -42.6,-305.5"
         style="fill:#9bc1f9;fill-opacity:1;fill-rule:nonzero;stroke:none"
         id="path176" /><path
         d="m 18284.5,10629.8 h -66.5 l 87.5,627.5 h 66.5 l -87.5,-627.5"
         style="fill:#86b6ef;fill-opacity:1;fill-rule:nonzero;stroke:none"
         id="path178" /><path
         d="m 18423.9,10813.6 h -66.6 l 36.3,259.9 h 66.5 l -36.2,-259.9"
         style="fill:#9bc1f9;fill-opacity:1;fill-rule:nonzero;stroke:none"
         id="path180" /><path
         d="m 18531.2,10738.4 h -66.5 l 57.2,410.3 h 66.5 l -57.2,-410.3"
         style="fill:#9bc1f9;fill-opacity:1;fill-rule:nonzero;stroke:none"
         id="path182" /><path
         d="m 18623.1,10610.7 h -66.6 l 92.8,665.7 h 66.6 l -92.8,-665.7"
         style="fill:#86b6ef;fill-opacity:1;fill-rule:nonzero;stroke:none"
         id="path184" /><path
         d="m 18751.5,10758.9 h -66.5 l 54.3,389.8 h 66.6 l -54.4,-389.8"
         style="fill:#9bc1f9;fill-opacity:1;fill-rule:nonzero;stroke:none"
         id="path186" /><path
         d="m 18877.3,10854.1 h -66.6 l 27.8,199.4 h 66.6 l -27.8,-199.4"
         style="fill:#9bc1f9;fill-opacity:1;fill-rule:nonzero;stroke:none"
         id="path188" /><path
         d="m 18991.7,10894.9 h -66.5 l 16.4,117.8 h 66.5 l -16.4,-117.8"
         style="fill:#9bc1f9;fill-opacity:1;fill-rule:nonzero;stroke:none"
         id="path190" /><path
         d="m 16190.9,10868.3 h -66.6 l 23.9,171 h 66.5 l -23.8,-171"
         style="fill:#9bc1f9;fill-opacity:1;fill-rule:nonzero;stroke:none"
         id="path192" /><path
         d="m 17342.9,10621.3 h -66.5 l 91.3,655.1 h 66.5 l -91.3,-655.1"
         style="fill:#86b6ef;fill-opacity:1;fill-rule:nonzero;stroke:none"
         id="path194" /><path
         d="m 17474.3,10704.2 h -66.5 l 66.7,478.7 h 66.6 l -66.8,-478.7"
         style="fill:#9bc1f9;fill-opacity:1;fill-rule:nonzero;stroke:none"
         id="path196" /><path
         d="m 16897.1,10813.6 h -66.5 l 36.2,259.9 h 66.5 l -36.2,-259.9"
         style="fill:#9bc1f9;fill-opacity:1;fill-rule:nonzero;stroke:none"
         id="path198" /><path
         d="m 17021.7,10847.8 h -66.5 l 26.7,191.5 h 66.5 l -26.7,-191.5"
         style="fill:#9bc1f9;fill-opacity:1;fill-rule:nonzero;stroke:none"
         id="path200" /><path
         d="m 17619.2,10813.6 h -66.5 l 36.2,259.9 h 66.5 l -36.2,-259.9"
         style="fill:#9bc1f9;fill-opacity:1;fill-rule:nonzero;stroke:none"
         id="path202" /><path
         d="m 17728.6,10738.4 h -66.6 l 57.3,410.3 h 66.5 l -57.2,-410.3"
         style="fill:#9bc1f9;fill-opacity:1;fill-rule:nonzero;stroke:none"
         id="path204" /><path
         d="m 17133.6,10790.8 h -66.5 l 42.6,305.5 h 66.5 l -42.6,-305.5"
         style="fill:#9bc1f9;fill-opacity:1;fill-rule:nonzero;stroke:none"
         id="path206" /><path
         d="m 17246.2,10738.4 h -66.5 l 57.2,410.3 h 66.5 l -57.2,-410.3"
         style="fill:#9bc1f9;fill-opacity:1;fill-rule:nonzero;stroke:none"
         id="path208" /><path
         d="m 17402.3,12176.7 c -46.1,-330.6 -348.1,-598.7 -674.5,-598.7 -326.4,0 -553.6,268.1 -507.5,598.7 46.1,330.7 348,598.8 674.5,598.8 326.4,0 553.6,-268.1 507.5,-598.8"
         style="fill:#9bc1f9;fill-opacity:1;fill-rule:nonzero;stroke:none"
         id="path210" /><path
         d="m 18380.5,11579.3 c -306.4,19.3 -515.1,279.3 -470.7,597.4 44.3,318.1 325.5,578.1 637.3,597.5 l -166.6,-1194.9"
         style="fill:#b0d5fa;fill-opacity:1;fill-rule:nonzero;stroke:none"
         id="path212" /><path
         d="m 18539.3,12187.3 518.6,280.4 c -71.2,173.3 -232.1,293.6 -436.8,306.5 l -81.8,-586.9"
         style="fill:#86b6ef;fill-opacity:1;fill-rule:nonzero;stroke:none"
         id="path214" /><path
         d="m 18527.2,12100.8 -72.7,-521.5 c 311.8,19.3 593,279.4 637.3,597.4 11,78.9 6.3,154.2 -11.5,223.2 l -553.1,-299.1"
         style="fill:#9bc1f9;fill-opacity:1;fill-rule:nonzero;stroke:none"
         id="path216" /><path
         d="m 13347.1,12465.7 v -668.8 c 0,0 9.4,-226.1 -188.4,-254.4 l 36.9,-301.6 c 13.8,-112.2 -53.3,-219.5 -161,-253.6 -52.6,-16.7 -115.5,-28.9 -186.8,-28.9 -226.1,0 -348.6,169.6 -367.4,254.4 -18.9,84.8 37.7,489.8 37.7,489.8 l -6.9,199.1 25.7,771.2 810.2,-207.2"
         style="fill:#fe9f73;fill-opacity:1;fill-rule:nonzero;stroke:none"
         id="path218" /><path
         d="m 12563.3,12635.8 157.7,-223.3 c 0,0 477.8,-185.6 722.8,34.2 244.9,219.8 169.5,325.4 97.7,435.5 -35.4,54.2 -204.3,164.6 -411.6,72.6 -113.1,-50.2 -196.8,99.7 -328.7,24.3 -131.9,-75.4 -287.5,-205.9 -270,-257.5 17.4,-51.6 32.1,-85.8 32.1,-85.8"
         style="fill:#21111d;fill-opacity:1;fill-rule:nonzero;stroke:none"
         id="path220" /><path
         d="m 12572.8,12730 c 0,0 -217.5,10.4 -278.2,-198.9 -60.7,-209.3 20.9,-319 23,-381.4 2.1,-62.4 -40.2,-483.2 255.2,-451.8 l 79.8,695 -102.8,276.8 23,60.3"
         style="fill:#21111d;fill-opacity:1;fill-rule:nonzero;stroke:none"
         id="path222" /><path
         d="m 13201.4,12400.3 c 0,0 17.9,-196.5 0,-250.1 -17.8,-53.6 -232.2,-196.5 -232.2,-196.5 0,0 -17.9,-375.2 -53.6,-393.1 -35.8,-17.8 -352.6,51.2 -453.2,150.6 -100.7,99.5 6.5,885.6 6.5,885.6 0,0 89.3,107.2 178.7,125 89.3,17.9 518.1,53.6 500.2,0 -17.8,-53.6 53.6,-321.5 53.6,-321.5"
         style="fill:#21111d;fill-opacity:1;fill-rule:nonzero;stroke:none"
         id="path224" /><path
         d="m 13147.8,12057.6 c 0,-93.7 -74.3,-169.6 -166,-169.6 -91.7,0 -166.1,75.9 -166.1,169.6 0,93.6 74.4,169.5 166.1,169.5 91.7,0 166,-75.9 166,-169.5"
         style="fill:#fe9f73;fill-opacity:1;fill-rule:nonzero;stroke:none"
         id="path226" /><path
         d="m 12969.5,11953.6 c -34.5,0 -57.5,26.5 -65.1,53 -9,31.3 1.3,61.7 26.2,77.5 36.7,23.3 70.1,8.3 87.2,-3.2 -7.2,19.3 -18.4,33.3 -33.6,41.8 -32.7,18.4 -73.3,5 -73.7,4.8 -2.4,-0.8 -5,0.6 -5.8,3 -0.8,2.5 0.5,5.2 2.9,6 1.8,0.6 44.7,14.8 81,-5.5 21,-11.8 35.2,-32.6 42.4,-61.8 l 4,-16.4 -11.7,11.9 c -1.7,1.7 -41.2,40.9 -87.9,11.4 -25.8,-16.4 -28.1,-46.3 -22.2,-66.9 6.2,-21.3 24.5,-46.1 56.3,-46.1 h 0.9 c 2.5,0 4.6,-2.1 4.6,-4.7 0.1,-2.6 -2,-4.7 -4.5,-4.7 l -1,-0.1"
         style="fill:#f07162;fill-opacity:1;fill-rule:nonzero;stroke:none"
         id="path228" /><path
         d="m 13269.1,11204 -35.2,176.4 -814.6,127.8 -55.8,-212.9 365.2,-91.3 h 540.4"
         style="fill:#ef3a4c;fill-opacity:1;fill-rule:nonzero;stroke:none"
         id="path230" /><path
         d="m 17616.3,8833.1 c 0,0 523.4,-3 660.4,-121.7 136.9,-118.7 170.4,-330.2 170.4,-330.2 h -1034.7 l 203.9,451.9"
         style="fill:#fe9f73;fill-opacity:1;fill-rule:nonzero;stroke:none"
         id="path232" /><path
         d="m 13387.1,1600.1 -998.9,156.3 212.8,1066.6 1085,-139.8 -298.9,-1083.1"
         style="fill:#fe9f73;fill-opacity:1;fill-rule:nonzero;stroke:none"
         id="path234" /><path
         d="m 12371.8,1361.8 h 940.1 l 381.1,425.9 697,-425.9 h 150.2 c 51.7,0 99.1,-35.9 108.9,-88 13.1,-70.1 -38.9,-131.4 -105,-131.4 h -2185.7 c -16,0 -29,13.3 -29,29.8 v 146 c 0,24.1 19,43.6 42.4,43.6"
         style="fill:#e02742;fill-opacity:1;fill-rule:nonzero;stroke:none"
         id="path236" /><path
         d="m 12380.2,1360.6 v 395.8 c 0,0 158.3,218.6 399.3,107 0,0 364.6,-265.3 686,55.8 l 798.1,-363.2 c 0,0 218.8,-75 278,-195.4 h -2161.4"
         style="fill:#f7597f;fill-opacity:1;fill-rule:nonzero;stroke:none"
         id="path238" /><path
         d="m 12372.2,1362.6 h 16 v 393.8 h -16 v -393.8"
         style="fill:#000000;fill-opacity:1;fill-rule:nonzero;stroke:none"
         id="path240" /><path
         d="m 13106.3,1752.1 c 30.5,0 48.9,2.7 49.5,2.8 l -2.4,16.2 c -1.8,-0.3 -190.2,-27.4 -369.4,99.1 l -9,-13.5 c 128.3,-90.6 261.4,-104.6 331.3,-104.6"
         style="fill:#000000;fill-opacity:1;fill-rule:nonzero;stroke:none"
         id="path242" /><path
         d="m 12574.4,1434.5 8.9,13.6 -101.9,70.6 -8.9,-13.7 101.9,-70.5"
         style="fill:#000000;fill-opacity:1;fill-rule:nonzero;stroke:none"
         id="path244" /><path
         d="m 12647.5,1454.5 8.9,13.6 -101.9,70.5 -8.9,-13.6 101.9,-70.5"
         style="fill:#000000;fill-opacity:1;fill-rule:nonzero;stroke:none"
         id="path246" /><path
         d="m 14618.5,1161.4 c 25.8,22.5 40.6,55.2 40.6,89.9 0,65.1 -51.6,118 -115,118 H 12383 c -34,0 -61.6,-28.4 -61.6,-63.2 v -109.5 h 16 v 109.5 c 0,25.8 20.4,46.8 45.6,46.8 h 2161.1 c 54.6,0 99,-45.6 99,-101.6 0,-29.8 -12.7,-58 -34.9,-77.4 l 10.3,-12.5"
         style="fill:#000000;fill-opacity:1;fill-rule:nonzero;stroke:none"
         id="path248" /><path
         d="m 14536.9,1357.6 14.5,7 c -1.8,3.9 -45.6,95.9 -209,167.4 -160.5,70.2 -866.6,391.5 -873.7,394.7 l -6.5,-15 c 7.1,-3.3 713.3,-324.6 874,-394.8 157.2,-68.8 200.3,-158.4 200.7,-159.3"
         style="fill:#000000;fill-opacity:1;fill-rule:nonzero;stroke:none"
         id="path250" /><path
         d="m 16017.4,1600.1 -998.9,156.3 212.9,1066.6 1084.9,-139.8 -298.9,-1083.1"
         style="fill:#fe9f73;fill-opacity:1;fill-rule:nonzero;stroke:none"
         id="path252" /><path
         d="m 15002.2,1361.8 h 940 l 381.1,425.9 697.1,-425.9 h 150.1 c 51.8,0 99.2,-35.9 108.9,-88 13.1,-70.1 -38.9,-131.4 -104.9,-131.4 h -2185.7 c -16.1,0 -29.1,13.3 -29.1,29.8 v 146 c 0,24.1 19,43.6 42.5,43.6"
         style="fill:#ef3a4c;fill-opacity:1;fill-rule:nonzero;stroke:none"
         id="path254" /><path
         d="m 15010.5,1360.6 v 395.8 c 0,0 158.3,218.6 399.4,107 0,0 364.5,-265.3 685.9,55.8 l 798.1,-363.2 c 0,0 218.8,-75 278.1,-195.4 h -2161.5"
         style="fill:#f7597f;fill-opacity:1;fill-rule:nonzero;stroke:none"
         id="path256" /><path
         d="m 15002.5,1362.6 h 16 v 393.8 h -16 v -393.8"
         style="fill:#000000;fill-opacity:1;fill-rule:nonzero;stroke:none"
         id="path258" /><path
         d="m 15736.6,1752.1 c 30.5,0 49,2.7 49.6,2.8 l -2.4,16.2 c -1.9,-0.3 -190.3,-27.4 -369.4,99.1 l -9.1,-13.5 c 128.4,-90.6 261.5,-104.6 331.3,-104.6"
         style="fill:#000000;fill-opacity:1;fill-rule:nonzero;stroke:none"
         id="path260" /><path
         d="m 15204.8,1434.5 8.9,13.6 -102,70.6 -8.9,-13.7 102,-70.5"
         style="fill:#000000;fill-opacity:1;fill-rule:nonzero;stroke:none"
         id="path262" /><path
         d="m 15277.9,1454.5 8.9,13.6 -101.9,70.5 -9,-13.6 102,-70.5"
         style="fill:#000000;fill-opacity:1;fill-rule:nonzero;stroke:none"
         id="path264" /><path
         d="m 17248.9,1161.4 c 25.8,22.5 40.6,55.2 40.6,89.9 0,65.1 -51.6,118 -115,118 h -2161.2 c -33.9,0 -61.6,-28.4 -61.6,-63.2 v -109.5 h 16 v 109.5 c 0,25.8 20.5,46.8 45.6,46.8 h 2161.2 c 54.6,0 99,-45.6 99,-101.6 0,-29.8 -12.8,-58 -35,-77.4 l 10.4,-12.5"
         style="fill:#000000;fill-opacity:1;fill-rule:nonzero;stroke:none"
         id="path266" /><path
         d="m 17167.3,1357.6 14.4,7 c -1.8,3.9 -45.5,95.9 -208.9,167.4 -160.5,70.2 -866.6,391.5 -873.7,394.7 l -6.5,-15 c 7.1,-3.3 713.3,-324.6 873.9,-394.8 157.2,-68.8 200.3,-158.4 200.8,-159.3"
         style="fill:#000000;fill-opacity:1;fill-rule:nonzero;stroke:none"
         id="path268" /><path
         d="m 14417,6772.6 c -253.9,678.2 -1043.6,839.6 -1043.6,839.6 0,0 -1686.9,223.7 -1962.9,-241.2 -569.3,-958.7 17,-1767.4 518.3,-1878.7 121.9,-27.1 327.6,-11.8 558.8,-18.7 186.2,-5.6 500.5,7.1 500.5,7.1 l -513.8,-2909.3 c 458.1,-111 1233,-133.4 1233,-133.4 624,1481.3 815.1,4053.2 709.7,4334.6"
         style="fill:#4cb7d8;fill-opacity:1;fill-rule:nonzero;stroke:none"
         id="path270" /><path
         d="m 17021.3,6108.8 c 25.4,789.2 -2825.5,937.1 -2825.5,937.1 0,0 -1604.8,563.6 -1880.8,98.7 -569.3,-958.7 17,-1767.4 518.4,-1878.8 121.8,-27 327.5,-10.7 558.7,-18.6 663.9,-22.8 1588.8,-10.2 1729.6,-8.1 l 0.2,-0.3 444.3,15.5 -513.8,-2909.3 c 458.1,-111 1233,-133.4 1233,-133.4 624,1481.3 726.2,3596.9 735.9,3897.2"
         style="fill:#4cb7d8;fill-opacity:1;fill-rule:nonzero;stroke:none"
         id="path272" /><path
         d="m 17654.3,8905.6 -2018.2,284.3 c 0,0 -1250.8,1591.9 -1421.4,1705.6 -170.5,113.7 -909.6,426.4 -2188.8,397.9 -1279.2,-28.4 -1506.6,-2785.8 -1506.6,-2785.8 0,0 2014.7,-2317.1 2103.5,-2330.9 1213.7,-188.4 1650.3,864.4 1650.3,864.4 l -117.8,1867.3 644.9,-527.2 h 2854.1 v 524.4"
         style="fill:#ffd4e0;fill-opacity:1;fill-rule:nonzero;stroke:none"
         id="path274" /><path
         d="m 11949.7,6902.3 c 8.2,0.6 14.7,7.5 14.7,15.9 -5.8,690.4 -36,3632.5 -36,3642.8 0.1,8.7 -6.9,15.8 -15.6,15.9 -8.9,0 -15.9,-7 -15.9,-15.7 -0.1,-10.3 30.1,-2952.6 35.9,-3643.3 0.1,-8.7 7.2,-15.7 15.9,-15.6 h 1"
         style="fill:#000000;fill-opacity:1;fill-rule:nonzero;stroke:none"
         id="path276" /><path
         d="m 13374.8,10471.4 367,-4851.6 c 17.5,-231.6 -41.4,-419.3 -131.5,-419.3 h -2705.9 c -90.2,0 -177.5,187.7 -195,419.3 l -367,4851.6 c -17.5,231.6 41.4,419.2 131.6,419.2 h 2705.8 c 90.2,0 177.5,-187.6 195,-419.2"
         style="fill:#f99247;fill-opacity:1;fill-rule:nonzero;stroke:none"
         id="path278" /><path
         d="m 13219.3,10471.4 367,-4851.6 c 17.5,-231.6 -41.4,-419.3 -131.6,-419.3 h -2705.8 c -90.2,0 -177.5,187.7 -195,419.3 l -367,4851.6 c -17.5,231.6 41.4,419.2 131.6,419.2 h 2705.8 c 90.2,0 177.5,-187.6 195,-419.2"
         style="fill:#fec786;fill-opacity:1;fill-rule:nonzero;stroke:none"
         id="path280" /><path
         d="m 15313.5,5526.7 h -4269.7 c -81.5,0 -147.6,-73 -147.6,-163.1 0,-90.1 66.1,-163.1 147.6,-163.1 h 4269.7 c 81.5,0 147.5,73 147.5,163.1 0,90.1 -66,163.1 -147.5,163.1"
         style="fill:#f99247;fill-opacity:1;fill-rule:nonzero;stroke:none"
         id="path282" /><path
         d="m 13582.1,5526.7 h -2528.5 c -86.9,0 -157.4,-73 -157.4,-163.1 0,-90.1 70.5,-163.1 157.4,-163.1 h 2528.5 c 4.4,0 23.9,-0.4 28.2,0 80.8,6.9 129.2,77.6 129.2,163.1 0,90.1 -70.5,163.1 -157.4,163.1"
         style="fill:#fec786;fill-opacity:1;fill-rule:nonzero;stroke:none"
         id="path284" /><path
         d="m 13584.1,5649.1 26.2,-448.6 h 293.3 l -179.6,326.2 -139.9,122.4"
         style="fill:#f99247;fill-opacity:1;fill-rule:nonzero;stroke:none"
         id="path286" /><path
         d="m 14000.2,1399.4 h -1044.6 v 3801.1 h -232.1 V 1399.4 h -1017.4 c -142,0 -257.1,-115.1 -257.1,-257 h 1274.5 232.1 1301.6 c 0,141.9 -115.1,257 -257,257"
         style="fill:#1e2b46;fill-opacity:1;fill-rule:nonzero;stroke:none"
         id="path288" /><path
         d="m 10451.5,6792.2 -266.8,3526.8 c -38.6,256.1 7.8,430.8 38.9,512.1 26.2,68.5 87.1,77.9 116.8,73.2 h 2636.1 v -27.4 h -2638.4 l -1.1,0.3 c -2.5,0.4 -62.8,9.5 -87.8,-55.9 -30.2,-78.7 -75.1,-248.4 -37.3,-499.2 l 266.9,-3527.9 -27.3,-2"
         style="fill:#000000;fill-opacity:1;fill-rule:nonzero;stroke:none"
         id="path290" /><path
         d="m 13544.7,5988.3 -275.6,3643.3 27.3,2 275.6,-3643.2 -27.3,-2.1"
         style="fill:#000000;fill-opacity:1;fill-rule:nonzero;stroke:none"
         id="path292" /><path
         d="m 15313.5,5186.8 h -4564.6 v 27.4 h 4564.6 v -27.4"
         style="fill:#000000;fill-opacity:1;fill-rule:nonzero;stroke:none"
         id="path294" /><path
         d="m 11437.8,6273.1 -258.3,365.2 22.3,15.8 258.4,-365.2 -22.4,-15.8"
         style="fill:#000000;fill-opacity:1;fill-rule:nonzero;stroke:none"
         id="path296" /><path
         d="m 11437.8,5954.2 -258.3,365.2 22.3,15.8 258.4,-365.2 -22.4,-15.8"
         style="fill:#000000;fill-opacity:1;fill-rule:nonzero;stroke:none"
         id="path298" /><path
         d="m 14000.2,1385.7 h -1058.3 v 3814.8 h 27.4 V 1413.1 h 1030.9 v -27.4"
         style="fill:#000000;fill-opacity:1;fill-rule:nonzero;stroke:none"
         id="path300" /><path
         d="m 17640.6,8565.3 h 27.4 v 352.2 l -2024.6,285.2 c -65.7,82.8 -1040,1310.6 -1261.1,1544.1 -4.4,4.8 -113.8,127.4 -207.7,188.6 -83.4,54.5 -413.3,238.5 -1159,321.9 l -3.1,-27.2 c 739.7,-82.7 1065,-264 1147.1,-317.6 90.8,-59.3 201.4,-183 202.5,-184.2 227.2,-240 1252.9,-1533.9 1263.2,-1546.9 l 3.4,-4.3 2011.9,-283.4 v -328.4"
         style="fill:#000000;fill-opacity:1;fill-rule:nonzero;stroke:none"
         id="path302" /><path
         d="m 13952.2,6566.2 c 160,137.6 326.1,455.1 333.1,468.6 l 1.7,3.4 -118,1871.1 -27.4,-1.7 117.6,-1863.5 c -18.4,-34.8 -177.4,-330.3 -324.8,-457.1 l 17.8,-20.8"
         style="fill:#000000;fill-opacity:1;fill-rule:nonzero;stroke:none"
         id="path304" /><path
         d="m 14791.5,8370.6 17.4,21.2 -759.5,620.9 -17.4,-21.2 759.5,-620.9"
         style="fill:#000000;fill-opacity:1;fill-rule:nonzero;stroke:none"
         id="path306" /><path
         d="m 7509.69,16115 -15.86,-5.1 c -58.76,-19 -115.65,-39.6 -171.76,-62.3 l -15.44,-6.3 -12.51,30.9 15.46,6.3 c 56.77,23 114.46,43.9 174.01,63.1 l 15.85,5.1 z m -526.54,-241.4 -17.83,28.1 14.09,9 c 50.82,32.1 105.13,62.9 161.4,91.3 l 14.88,7.5 15.04,-29.7 -14.87,-7.5 c -55.33,-28 -108.7,-58.2 -158.62,-89.8 z m 881.35,329.8 -16.37,-3.2 c -60.57,-11.7 -120.64,-25.1 -178.57,-39.8 l -16.15,-4.1 -8.2,32.3 16.16,4.1 c 58.52,14.8 119.23,28.4 180.43,40.2 l 16.36,3.2 z m 362.74,49.1 -16.61,-1.5 c -60.53,-5.3 -121.72,-12.3 -181.91,-20.7 l -16.51,-2.3 -4.63,33 16.51,2.3 c 60.75,8.5 122.52,15.5 183.61,20.9 l 16.6,1.5 z M 6702.7,15643 l -23.92,23.2 11.62,12 c 42.31,43.5 88.63,85.5 137.73,124.8 l 13,10.4 20.83,-26 -13.02,-10.4 c -47.99,-38.4 -93.3,-79.5 -134.63,-122 z m -722.78,-364.8 -16.11,-4.3 c -57.09,-15.3 -115.08,-34.7 -172.38,-57.8 l -15.45,-6.2 -12.45,30.9 15.47,6.2 c 58.39,23.6 117.81,43.4 176.21,59.1 l 16.11,4.3 z m -523.16,-242.7 -18.64,27.7 13.81,9.3 c 51.54,34.7 105.01,67 158.9,95.8 l 14.7,7.9 15.73,-29.4 -14.71,-7.9 c -52.9,-28.3 -105.37,-59.9 -155.98,-94 z m 882.43,279.1 -16.64,0.8 c -57.99,3 -118.79,0.7 -180.69,-6.8 l -16.55,-2 -4,33.1 16.55,2 c 63.8,7.7 126.49,10.1 186.39,7 l 16.64,-0.8 z m 143.2,39.1 -28.23,17.7 8.84,14.1 c 32.43,51.7 68.18,102.9 106.25,152 l 10.22,13.2 26.34,-20.4 -10.21,-13.2 c -37.4,-48.3 -72.5,-98.5 -104.35,-149.3 z m -1303.94,-552.9 -23.67,23.5 11.73,11.8 c 43.39,43.8 89.45,85.9 136.91,125.2 l 12.83,10.6 21.28,-25.7 -12.84,-10.6 c -46.64,-38.6 -91.88,-80 -134.5,-122.9 z m 1502.02,410.8 -14.44,8.3 c -50.43,29.1 -106.15,52 -165.59,68 l -16.09,4.4 8.68,32.2 16.1,-4.4 c 62.22,-16.8 120.61,-40.8 173.55,-71.3 l 14.43,-8.3 z m -1723.28,-698.4 -28.45,17.4 8.68,14.2 c 32.29,52.8 67.93,104.1 105.95,152.5 l 10.3,13.1 26.19,-20.7 -10.3,-13.1 c -37.21,-47.3 -72.08,-97.5 -103.68,-149.2 z m 1369.19,512.2 -31.4,11.2 5.6,15.7 c 20.53,57.5 44.82,115 72.2,171 l 7.32,15 29.96,-14.6 -7.32,-15 c -26.85,-54.9 -50.65,-111.3 -70.77,-167.6 z m -1519.36,-843.1 -31.54,10.8 5.37,15.8 c 20.17,59.1 43.38,117 69.01,172.2 l 7.01,15.1 30.23,-14 -7.02,-15.1 c -25.12,-54.2 -47.9,-111 -67.67,-169 z m 2112.6,767.9 -8.14,14.6 c -11.54,20.7 -23.97,41 -36.94,60.2 -20.52,30.4 -43.45,58.9 -68.17,84.8 l -11.5,12.1 24.1,23 11.51,-12.1 c 26,-27.2 50.13,-57.2 71.69,-89.2 13.48,-20 26.43,-41 38.44,-62.6 l 8.11,-14.5 z m -668.27,-279.6 -33.22,2.9 1.46,16.6 c 5.24,60.2 14.99,122 28.97,183.8 l 3.67,16.3 32.51,-7.4 -3.68,-16.3 c -13.63,-60.3 -23.15,-120.6 -28.27,-179.3 z m -1525.7,-843.3 -33,4.8 2.42,16.5 c 9.07,62 20.7,123.3 34.59,182.1 l 3.83,16.2 32.45,-7.7 -3.83,-16.2 c -13.67,-57.8 -25.12,-118.1 -34.06,-179.2 z m 2326.19,781.5 -33.21,-2.9 -1.45,16.6 c -5.18,58.9 -16.95,118.4 -34.98,176.6 l -4.92,15.9 31.84,9.9 4.92,-15.9 c 18.73,-60.5 30.97,-122.3 36.34,-183.6 z m -763.45,-295.4 -31.86,-9.8 -4.92,15.9 c -17.23,56 -28.54,117.9 -33.59,184.2 l -1.27,16.6 33.24,2.6 1.26,-16.7 c 4.87,-63.8 15.71,-123.3 32.22,-176.9 z m -1585.3,-850.6 -33.32,-0.1 -0.05,16.7 c -0.17,62.7 1.82,124.9 5.88,185 l 1.12,16.7 33.26,-2.3 -1.12,-16.6 c -4.01,-59.3 -5.97,-120.8 -5.81,-182.7 z m 2273.55,781.6 -29.26,15.9 7.99,14.6 c 26.94,49.4 45.79,106 56,168.4 l 2.7,16.4 32.9,-5.4 -2.68,-16.4 c -10.83,-66.1 -30.9,-126.3 -59.67,-178.9 z m -465.49,-204.6 -16.22,3.8 c -60.75,14.5 -114.11,50.5 -158.59,107 l -10.32,13.1 26.19,20.6 10.32,-13.1 c 39.72,-50.4 86.87,-82.4 140.14,-95.1 l 16.22,-3.9 z m 254.61,26.3 h -0.09 c -25.55,-9.6 -52.84,-17.1 -81.06,-22.2 l -16.41,-2.9 -5.9,32.8 16.4,3 c 26.25,4.7 51.57,11.6 75.23,20.5 h 0.09 c 31.1,11.7 60.2,27.2 86.49,46 l 13.55,9.7 19.39,-27.2 -13.55,-9.6 c -28.65,-20.5 -60.34,-37.4 -94.14,-50.1 z m -2037.04,-968.2 -33.08,-4.1 -2.03,16.5 c -7.64,61.7 -13.52,123.6 -17.49,184.2 l -1.1,16.6 33.27,2.2 1.09,-16.6 c 3.93,-60 9.76,-121.3 17.3,-182.3 z m 66.21,-360.2 -32.46,-7.6 -3.79,16.2 c -13.97,59.6 -26.55,120.5 -37.4,181.2 l -2.94,16.4 32.82,5.9 2.94,-16.5 c 10.74,-60 23.2,-120.4 37.03,-179.4 l 3.8,-16.2"
         style="fill:#3f567e;fill-opacity:1;fill-rule:nonzero;stroke:none"
         id="path308" /><path
         d="m 8640.62,16096.1 119.41,224.2 c 0,0 786.95,275.3 796.92,283.6 9.97,8.3 376.52,313.1 376.52,313.1 l -528.57,-91 -824.01,-320.9 59.73,-409"
         style="fill:#f99247;fill-opacity:1;fill-rule:nonzero;stroke:none"
         id="path310" /><path
         d="m 8290.71,16877.5 1642.76,39.5 -1352.58,-411.9 z"
         style="fill:#fec786;fill-opacity:1;fill-rule:nonzero;stroke:none"
         id="path312" /><path
         d="m 8760.03,16320.3 305.92,-397.1 867.52,993.8 z"
         style="fill:#fec786;fill-opacity:1;fill-rule:nonzero;stroke:none"
         id="path314" /><path
         d="m 26057.8,4748.5 c 0,0 -72.5,1010.3 -464.7,814.2 -392.2,-196.1 -711.9,-1483.5 -754.5,-1521.9 -42.7,-38.3 -29.9,-1214.9 -29.9,-1214.9 l 456.2,230.2 c 0,0 121.3,2812.2 792.9,1692.4"
         style="fill:#258d8c;fill-opacity:1;fill-rule:nonzero;stroke:none"
         id="path316" /><path
         d="m 25618.2,6840.3 c 0,0 -878.7,-786.3 -1118.5,-2134.4 -239.8,-1348.2 517.9,-1745 517.9,-1745 0,0 107.8,2834.7 600.6,3879.4"
         style="fill:#7fc6a6;fill-opacity:1;fill-rule:nonzero;stroke:none"
         id="path318" /><path
         d="m 23988.1,2779 c 0,0 -147.1,2869.9 -888.8,4114.2 0,0 1302.2,-776.9 1734,-2816 24.3,-114.8 38.7,-242.5 57.1,-365.3 19.2,-127.9 30.6,-241.1 27.7,-354.1 -5.2,-199.7 -32.9,-371.3 -41,-497.4 -70.3,-1089.6 -889,-81.4 -889,-81.4"
         style="fill:#258d8c;fill-opacity:1;fill-rule:nonzero;stroke:none"
         id="path320" /><path
         d="m 24013.2,3997.7 c -50.4,409.2 -205.8,799.2 -455.5,1127.3 -180.3,236.9 -389.1,417 -552.2,288.5 -362.3,-285.6 -434.8,-2059 -434.8,-2059 0,0 409.2,1227.7 588.3,1146.7 179,-80.9 345.3,-1747.8 345.3,-1747.8 l 669.2,-55.4 -160.3,1299.7"
         style="fill:#7fc6a6;fill-opacity:1;fill-rule:nonzero;stroke:none"
         id="path322" /><path
         d="m 24926.1,2879.2 c 27.5,626.6 -51.1,1228 -233.5,1787.4 -146,447.6 -358.4,869.6 -631.4,1254.1 -464.8,654.8 -951.1,978.4 -956,981.6 l -11.9,-18.1 c 4.9,-3.2 488.3,-325 950.8,-976.8 426.7,-601.4 922.3,-1614.7 860.4,-3027.2 l 21.6,-1"
         style="fill:#000000;fill-opacity:1;fill-rule:nonzero;stroke:none"
         id="path324" /><path
         d="m 25028.4,2960.5 c 0.3,7.1 28,718.1 115.5,1547.4 80.7,764.8 230.2,1789.5 484.1,2327.8 l -19.6,9.2 c -255.2,-541 -405.2,-1568.3 -486.1,-2334.9 -87.5,-830 -115.2,-1541.6 -115.5,-1548.6 l 21.6,-0.9"
         style="fill:#21111d;fill-opacity:1;fill-rule:nonzero;stroke:none"
         id="path326" /><path
         d="m 25275.7,3055.6 c 0.2,4.6 20.8,466.8 88.7,935.2 89.3,615.8 218.4,962.3 373.2,1002 91.5,23.5 196.1,-60.6 310.9,-249.9 l 18.5,11.2 c -120.3,198.4 -233,285.8 -334.7,259.7 -166.4,-42.6 -297.4,-385.8 -389.4,-1020 -68,-469.5 -88.7,-932.6 -88.9,-937.3 l 21.7,-0.9"
         style="fill:#21111d;fill-opacity:1;fill-rule:nonzero;stroke:none"
         id="path328" /><path
         d="m 24162.8,2696.7 21.5,2.7 L 24024,3999 c -51.2,414.7 -209.4,806.3 -457.6,1132.5 -157.2,206.5 -296.8,318.9 -415,333.9 -55.8,7.1 -107.1,-7.5 -152.6,-43.4 -152.6,-120.2 -272.8,-505 -357.3,-1143.7 -62.8,-474 -81.5,-918.9 -81.6,-923.3 l 21.6,-0.9 c 0.7,17.7 76.4,1771.6 430.7,2050.9 40.8,32.1 86.7,45.2 136.5,38.9 112.2,-14.3 246.9,-123.8 400.4,-325.5 245.9,-323.1 402.7,-711.1 453.4,-1122 l 160.3,-1299.7"
         style="fill:#21111d;fill-opacity:1;fill-rule:nonzero;stroke:none"
         id="path330" /><path
         d="m 23588.4,4017 19.3,9.9 -140.7,272.6 -19.2,-10 140.6,-272.5"
         style="fill:#21111d;fill-opacity:1;fill-rule:nonzero;stroke:none"
         id="path332" /><path
         d="m 23588.6,3850 18.9,10.4 -140.6,255.3 -19,-10.5 140.7,-255.2"
         style="fill:#21111d;fill-opacity:1;fill-rule:nonzero;stroke:none"
         id="path334" /><path
         d="m 24925.2,5652 120.2,263.9 -19.8,9 -120.2,-263.9 19.8,-9"
         style="fill:#21111d;fill-opacity:1;fill-rule:nonzero;stroke:none"
         id="path336" /><path
         d="m 24924.8,5523.4 102.3,184.6 -19,10.5 -102.3,-184.6 19,-10.5"
         style="fill:#21111d;fill-opacity:1;fill-rule:nonzero;stroke:none"
         id="path338" /><path
         d="m 25502.1,5342.3 204.6,104.3 -9.8,19.3 -204.6,-104.3 9.8,-19.3"
         style="fill:#21111d;fill-opacity:1;fill-rule:nonzero;stroke:none"
         id="path340" /><path
         d="m 25502.8,5253.9 121.1,73.6 -11.3,18.5 -121,-73.6 11.2,-18.5"
         style="fill:#21111d;fill-opacity:1;fill-rule:nonzero;stroke:none"
         id="path342" /><path
         d="m 25497.2,3129 c 0,0 -38.2,-2098.1 -600.2,-2048.9 h -441.9 -70.9 -441.9 c -562,-49.2 -600.2,2048.9 -600.2,2048.9 531.8,80.4 1623.3,80.4 2155.1,0"
         style="fill:#fec786;fill-opacity:1;fill-rule:nonzero;stroke:none"
         id="path344" /><path
         d="m 24165.7,2197.1 15.7,14.9 -614.1,648.4 -15.7,-14.9 614.1,-648.4"
         style="fill:#21111d;fill-opacity:1;fill-rule:nonzero;stroke:none"
         id="path346" /><path
         d="m 24069.6,2039.7 16.3,14.2 -338,388.8 -16.4,-14.2 338.1,-388.8"
         style="fill:#21111d;fill-opacity:1;fill-rule:nonzero;stroke:none"
         id="path348" /><path
         d="M 30111.4,1079.3 H 2831.65 v 103.9 H 30111.4 v -103.9"
         style="fill:#1e2b46;fill-opacity:1;fill-rule:nonzero;stroke:none"
         id="path350" /></g></g></svg>
