<?xml version="1.0" standalone="no"?>
<!DOCTYPE svg PUBLIC "-//W3C//DTD SVG 20010904//EN"
 "http://www.w3.org/TR/2001/REC-SVG-20010904/DTD/svg10.dtd">
<svg version="1.0" xmlns="http://www.w3.org/2000/svg"
 width="1341.000000pt" height="1326.000000pt" viewBox="0 0 1341.000000 1326.000000"
 preserveAspectRatio="xMidYMid meet">
<metadata>
Created by potrace 1.14, written by Peter Selinger 2001-2017
</metadata>
<g transform="translate(0.000000,1326.000000) scale(0.100000,-0.100000)"
fill="#000000" stroke="none">
<path d="M5386 11424 c-8 -20 -8 -2608 0 -2628 6 -14 134 -16 1348 -16 l1343
0 11 25 c9 19 12 362 12 1330 l0 1305 -1354 0 c-1225 0 -1354 -2 -1360 -16z
m1039 -949 c211 -545 228 -587 240 -589 14 -2 87 174 260 623 l150 391 134 0
c133 0 133 0 127 -22 -3 -13 -106 -284 -230 -603 -198 -511 -227 -580 -245
-579 -12 0 -105 1 -208 2 l-188 2 -225 587 c-124 322 -226 592 -228 600 -3 11
20 13 124 11 l127 -3 162 -420z m1201 -1186 c20 -33 -8 -34 -949 -34 -513 0
-941 4 -952 8 -20 8 -20 9 -1 23 17 12 161 14 957 14 665 0 940 -3 945 -11z"/>
<path d="M2377 7856 c-4 -9 38 -108 92 -223 54 -115 140 -300 191 -413 52
-113 98 -211 103 -217 6 -9 38 -13 96 -13 l87 0 23 48 c55 111 371 812 371
822 0 6 -29 10 -73 10 l-74 0 -158 -357 c-87 -197 -161 -361 -164 -365 -4 -5
-81 155 -173 355 l-165 362 -75 3 c-60 2 -77 0 -81 -12z"/>
<path d="M3860 7844 c-14 -35 -13 -809 0 -835 9 -15 22 -19 69 -19 52 0 59 2
69 25 9 18 12 147 12 440 l0 415 -70 0 c-66 0 -71 -1 -80 -26z"/>
<path d="M4895 7861 c-135 -16 -198 -45 -242 -110 -40 -60 -46 -102 -40 -331
6 -290 26 -349 134 -401 43 -21 58 -22 297 -23 138 -1 268 3 289 7 86 18 155
120 164 243 l6 74 -76 0 c-88 0 -85 3 -89 -105 -3 -59 -4 -60 -43 -80 -34 -17
-66 -20 -200 -23 -238 -6 -288 11 -315 107 -6 20 -13 119 -17 221 -7 223 1
264 52 286 43 18 262 29 378 19 103 -8 121 -20 132 -86 12 -81 10 -79 79 -79
78 0 90 16 71 96 -22 95 -70 150 -154 174 -47 14 -337 21 -426 11z"/>
<path d="M6061 7839 c-15 -43 -15 -802 -1 -830 9 -15 22 -19 69 -19 78 0 81 7
81 220 l0 170 26 0 c46 0 94 -31 329 -212 l230 -178 83 0 c53 0 81 4 77 10 -3
6 -1 10 5 10 6 0 9 4 6 9 -4 5 -2 11 4 13 6 2 -38 39 -96 82 -58 44 -174 134
-257 200 -84 67 -156 124 -162 128 -11 8 7 24 259 231 100 82 187 160 194 173
l13 24 -90 0 -89 0 -183 -151 c-222 -183 -260 -209 -311 -209 l-38 0 0 180 0
180 -69 0 c-68 0 -69 0 -80 -31z"/>
<path d="M7446 7854 c-8 -20 -8 -828 0 -848 5 -14 46 -16 349 -16 l343 0 12
29 c6 16 10 42 8 57 l-3 29 -282 3 -283 2 0 135 0 135 268 0 269 0 11 25 c7
14 12 39 12 55 l0 30 -279 0 c-154 0 -281 3 -283 8 -2 4 -2 60 0 125 l3 117
273 0 273 0 11 25 c7 14 12 44 12 65 l0 40 -354 0 c-313 0 -355 -2 -360 -16z"/>
<path d="M8747 7855 c-9 -21 -9 -828 -1 -849 5 -12 21 -16 68 -16 58 0 64 2
74 25 7 16 12 82 12 170 l0 145 83 -1 c144 0 361 -17 395 -29 50 -18 62 -53
62 -174 0 -57 3 -111 6 -120 5 -12 21 -16 68 -16 58 0 64 2 74 25 15 33 15
149 1 234 -10 55 -17 72 -48 101 l-37 35 29 25 c50 40 71 102 71 200 0 99 -24
164 -72 198 -64 46 -126 54 -463 59 -291 5 -316 4 -322 -12z m567 -124 c65 -7
83 -13 105 -35 24 -24 26 -33 26 -112 0 -127 -7 -130 -327 -140 l-218 -7 0
151 0 152 168 -1 c92 0 202 -4 246 -8z"/>
<path d="M10395 7860 c-133 -21 -191 -65 -221 -167 -30 -103 2 -221 73 -269
43 -29 115 -41 334 -59 102 -8 197 -19 211 -24 37 -14 48 -40 48 -110 0 -49
-4 -65 -24 -88 l-24 -28 -175 -3 c-254 -5 -294 10 -306 113 l-6 60 -65 -3
c-36 -2 -68 -8 -72 -15 -13 -20 -9 -115 6 -150 17 -43 76 -93 123 -106 60 -17
536 -14 577 3 117 49 168 313 78 399 -52 49 -114 63 -371 82 -108 9 -204 18
-214 21 -23 7 -56 78 -57 119 0 80 51 100 265 100 202 0 217 -5 246 -86 l22
-59 57 0 c54 0 58 2 70 30 16 39 6 109 -23 152 -26 39 -73 64 -145 78 -76 14
-337 21 -407 10z"/>
<path d="M1732 6723 c-96 -2 -151 -7 -147 -13 3 -6 0 -10 -7 -10 -7 -1 -2 -7
12 -15 22 -12 727 -14 5160 -15 2824 0 5159 3 5188 6 53 7 68 24 35 40 -16 8
-9879 14 -10241 7z"/>
<path d="M2295 5670 c3 -5 2 -10 -4 -10 -6 0 10 -44 35 -97 26 -54 107 -228
181 -388 74 -159 143 -309 154 -332 l21 -43 88 0 88 0 23 48 c13 26 103 223
200 437 l177 390 -71 3 c-48 2 -74 -1 -83 -10 -6 -7 -81 -169 -165 -360 -84
-192 -156 -348 -159 -348 -4 0 -81 162 -171 360 l-164 360 -78 0 c-50 0 -76
-4 -72 -10z"/>
<path d="M3660 5661 c-13 -26 -14 -800 0 -835 l10 -26 338 0 339 0 11 25 c7
14 12 41 12 60 l0 35 -285 0 -285 0 0 135 0 135 269 0 269 0 12 29 c6 16 10
42 8 57 l-3 29 -277 3 -278 2 0 120 0 120 273 0 274 0 11 25 c7 14 12 44 12
65 l0 40 -350 0 c-335 0 -350 -1 -360 -19z"/>
<path d="M4876 5664 c-8 -20 -8 -828 0 -848 5 -12 20 -16 63 -16 52 0 59 2 69
25 7 16 12 88 13 183 1 86 4 235 8 330 l6 173 285 -353 286 -353 95 -3 c94 -3
96 -2 107 23 9 19 12 144 12 440 l0 415 -65 0 c-36 0 -66 -1 -67 -2 -1 -2 -5
-164 -8 -361 l-5 -359 -288 361 -289 361 -108 0 c-89 0 -109 -3 -114 -16z"/>
<path d="M6276 5664 c-3 -9 -6 -31 -6 -49 0 -67 -6 -65 186 -65 l174 0 0 -359
c0 -198 3 -366 6 -375 5 -12 21 -16 66 -16 89 0 88 -5 88 410 l0 340 153 0
154 0 11 25 c7 14 12 44 12 65 l0 40 -419 0 c-373 0 -420 -2 -425 -16z"/>
<path d="M7586 5665 c-8 -22 -6 -440 3 -586 6 -105 10 -122 36 -165 44 -72 90
-91 250 -105 150 -12 402 1 457 24 44 19 82 61 110 122 22 49 23 60 26 388 l3
337 -70 0 c-65 0 -71 -2 -76 -22 -2 -13 -6 -160 -8 -328 -3 -343 -8 -368 -67
-389 -42 -14 -381 -15 -432 0 -70 19 -72 29 -78 404 l-5 330 -71 3 c-59 2 -73
0 -78 -13z"/>
<path d="M9026 5665 c-8 -21 -8 -828 0 -849 5 -12 20 -16 63 -16 52 0 59 2 69
25 8 16 12 82 12 172 l0 146 213 -6 c319 -10 326 -14 334 -184 6 -161 3 -153
72 -153 56 0 59 1 71 30 9 21 11 67 8 148 -5 130 -18 170 -68 201 l-30 18 25
13 c15 8 39 40 57 77 29 59 30 68 26 150 -5 97 -28 158 -71 186 -67 44 -119
50 -453 55 -294 4 -322 3 -328 -13z m593 -124 c81 -12 101 -39 101 -139 0 -97
-12 -117 -80 -131 -28 -6 -145 -11 -260 -11 l-210 0 0 145 0 145 198 -1 c108
0 221 -4 251 -8z"/>
<path d="M10360 5661 c-13 -26 -14 -800 0 -835 l10 -26 338 0 339 0 11 25 c7
14 12 41 12 60 l0 35 -285 0 -285 0 0 135 0 135 269 0 269 0 12 29 c6 16 10
42 8 57 l-3 29 -277 3 -278 2 0 120 0 120 273 0 274 0 11 25 c7 14 12 44 12
65 l0 40 -350 0 c-335 0 -350 -1 -360 -19z"/>
<path d="M1732 4573 c-96 -2 -151 -7 -147 -13 3 -6 0 -10 -7 -10 -7 -1 -2 -7
12 -15 22 -12 727 -14 5160 -15 2824 0 5159 3 5188 6 53 7 68 24 35 40 -16 8
-9879 14 -10241 7z"/>
<path d="M1405 3484 c-13 -13 -15 -69 -15 -424 0 -225 3 -415 6 -424 5 -12 21
-16 68 -16 58 0 64 2 74 25 7 16 12 81 12 164 l0 139 243 4 c236 3 243 4 298
29 94 44 139 126 139 253 0 92 -22 157 -66 195 -58 51 -77 54 -551 66 -164 4
-194 2 -208 -11z m533 -113 c115 -11 126 -23 130 -139 4 -84 3 -88 -25 -114
l-28 -27 -232 -7 -233 -7 0 152 0 151 153 -1 c83 0 189 -4 235 -8z"/>
<path d="M3081 3443 c-161 -327 -371 -789 -366 -804 5 -16 16 -19 69 -19 l64
0 38 85 38 85 273 0 273 0 42 -85 42 -85 62 0 c55 0 62 2 72 24 10 22 -4 57
-129 312 -77 158 -167 342 -199 410 l-59 124 -98 0 -99 0 -23 -47z m224 -304
l105 -224 -104 -3 c-58 -1 -154 -1 -214 0 l-110 3 106 227 c58 125 107 226
109 224 2 -2 51 -104 108 -227z"/>
<path d="M4246 3475 c-8 -21 -8 -818 0 -839 5 -12 21 -16 68 -16 58 0 64 2 74
25 7 16 12 81 12 167 l0 141 213 -6 c314 -8 320 -11 325 -176 4 -158 1 -151
76 -151 61 0 64 1 76 31 18 41 7 221 -16 278 -10 25 -29 51 -46 61 l-29 17 26
17 c31 20 72 103 81 163 3 23 1 74 -6 114 -10 61 -18 79 -49 112 -60 64 -95
70 -472 75 -297 3 -327 2 -333 -13z m584 -121 c68 -6 95 -23 110 -70 18 -53 9
-150 -16 -175 -29 -29 -116 -39 -336 -39 l-188 0 0 150 0 151 188 -6 c103 -3
212 -8 242 -11z"/>
<path d="M5610 3471 c-14 -28 -12 -63 6 -89 15 -21 21 -22 185 -22 l169 0 0
-363 c0 -269 3 -366 12 -375 7 -7 33 -12 59 -12 81 0 79 -9 79 397 l0 353 154
0 c149 0 155 1 170 22 9 12 16 42 16 65 l0 43 -420 0 c-404 0 -420 -1 -430
-19z"/>
<path d="M6996 3474 c-8 -20 -8 -818 0 -838 9 -24 129 -23 140 2 5 9 11 169
14 354 l5 337 285 -352 285 -352 101 -3 c100 -3 101 -2 112 23 9 19 12 143 12
435 l0 410 -64 0 c-41 0 -68 -5 -73 -12 -4 -7 -10 -167 -13 -356 l-5 -343
-285 355 -285 356 -111 0 c-93 0 -113 -3 -118 -16z"/>
<path d="M8546 3474 c-3 -9 -6 -199 -6 -424 0 -358 2 -411 16 -424 13 -14 59
-16 344 -16 328 0 329 0 344 22 9 12 16 39 16 60 l0 38 -285 0 -285 0 0 135 0
135 268 0 269 0 11 25 c7 14 12 41 12 60 l0 35 -280 0 -280 0 0 120 0 120 269
0 c268 0 270 0 285 22 9 12 16 42 16 65 l0 43 -354 0 c-313 0 -355 -2 -360
-16z"/>
<path d="M9836 3475 c-9 -25 -7 -828 3 -843 5 -9 26 -12 67 -10 79 4 84 14 84
192 l0 139 213 -6 c139 -3 226 -10 252 -18 59 -20 75 -59 75 -184 0 -55 4
-106 9 -113 5 -9 26 -12 67 -10 81 4 88 19 76 170 -9 124 -28 177 -68 198
l-24 14 30 28 c49 44 70 101 70 193 0 102 -14 151 -54 191 -61 61 -103 67
-467 72 -297 3 -327 2 -333 -13z m593 -121 c73 -8 97 -32 105 -110 9 -86 -3
-124 -44 -149 -32 -18 -55 -20 -267 -24 l-233 -3 0 151 0 152 193 -6 c105 -3
216 -8 246 -11z"/>
<path d="M11434 3476 c-99 -25 -152 -73 -175 -160 -16 -60 -6 -156 22 -208 43
-77 111 -97 399 -118 157 -11 211 -22 230 -45 7 -8 15 -43 17 -78 5 -60 4 -66
-24 -97 l-30 -34 -184 0 c-207 -1 -250 7 -274 54 -8 16 -15 47 -15 69 0 50
-15 59 -82 51 -76 -10 -92 -43 -67 -135 16 -58 55 -104 108 -128 40 -18 70
-21 249 -25 111 -2 237 -1 280 3 74 7 79 9 118 50 53 55 74 117 74 218 0 174
-54 204 -407 227 -94 6 -184 15 -200 19 -38 10 -73 64 -73 112 0 91 25 102
246 107 213 5 231 0 264 -82 l22 -56 58 0 c54 0 58 2 70 29 13 32 8 70 -17
133 -17 43 -40 60 -114 83 -72 23 -418 31 -495 11z"/>
<path d="M2340 2400 c-520 -3 -946 -6 -947 -8 -2 -1 -3 -8 -3 -16 0 -10 20
-17 68 -23 86 -10 10441 -11 10503 0 32 5 48 14 52 26 4 17 -57 18 -1391 24
-1521 8 -6768 5 -8282 -3z"/>
</g>
</svg>
